<?xml version="1.0" encoding="UTF-8"?>
<svg version="1.1" viewBox="0 0 135 16" xmlns="http://www.w3.org/2000/svg" xmlns:xlink="http://www.w3.org/1999/xlink">
<title>80A90F03-F90F-4A16-8ADC-92EBF229519E@1x</title>
<defs>
<path id="t" d="m3.9969 1.8305c-1.1901 0.61418-2.1261 1.4564-2.8045 2.5276-0.676 1.0713-1.0235 2.3029-1.0365 3.6949 0.0094545 1.3495 0.338 2.5451 0.99036 3.5891 0.65 1.044 1.5706 1.8644 2.7607 2.46 1.1865 0.59782 2.5917 0.90436 4.2108 0.91418 0.897 0.0076364 1.7314-0.064364 2.4972-0.216 0.76582-0.15164 1.4607-0.42655 2.0824-0.82364v-2.844c-0.79182 0.55745-1.5553 0.92727-2.2892 1.1084-0.73509 0.18109-1.521 0.264-2.3601 0.25091-0.88164-0.012-1.6664-0.22909-2.353-0.648-0.68545-0.42109-1.2255-0.97636-1.6215-1.6702-0.39473-0.696-0.59564-1.4585-0.60155-2.292 0.029545-1.368 0.49045-2.4578 1.3839-3.2727 0.89345-0.81055 2.0339-1.2284 3.4237-1.248 0.85564-0.0032727 1.6285 0.098182 2.3116 0.30218 0.68545 0.20509 1.3875 0.528 2.106 0.97091v-2.8658c-1.1475-0.57818-2.6733-0.86618-4.5795-0.87164-1.5553 0.013091-2.9285 0.324-4.121 0.93382z"/>
<path id="n" d="m2.6263 2.832c-1.2686 1.2622-1.92 2.9738-1.9474 5.136 8e-3 1.4236 0.30629 2.664 0.896 3.7211 0.58857 1.0549 1.4149 1.8753 2.4789 2.46s2.3131 0.88036 3.7463 0.88909c1.432-0.0087273 2.68-0.30436 3.7429-0.88909 1.0651-0.58473 1.8914-1.4051 2.48-2.46 0.58857-1.0571 0.88914-2.2975 0.89714-3.7211-0.028571-2.1622-0.68457-3.8738-1.9589-5.136-1.2754-1.2611-2.9966-1.9069-5.1611-1.9342-2.176 0.027273-3.9006 0.67309-5.1737 1.9342zm2.28 8.5036c-0.67543-0.83345-1.016-1.9571-1.024-3.3676 8e-3 -1.4116 0.34857-2.5342 1.024-3.3687 0.67314-0.83455 1.6389-1.2611 2.8937-1.2818 1.2411 0.020727 2.2057 0.44727 2.8823 1.2818 0.68 0.83455 1.024 1.9571 1.0331 3.3687-0.0091429 1.4105-0.35314 2.5342-1.0331 3.3676-0.67657 0.83564-1.6411 1.2633-2.8823 1.2829-1.2549-0.019636-2.2206-0.44727-2.8937-1.2829z"/>
<path id="m" d="m1.9867 2.0542c-0.93778 0.72982-1.4211 1.7389-1.4489 3.0251-0.01 0.756 0.20333 1.4335 0.63222 2.0345 0.43 0.60545 1.1267 1.1302 2.0933 1.5753l1.8389 0.84982c0.44667 0.19309 0.78778 0.41127 1.0233 0.65564 0.23778 0.24436 0.35778 0.56291 0.36111 0.95782-0.013333 0.42982-0.20889 0.79964-0.58333 1.1073-0.37667 0.30982-0.85333 0.47127-1.4289 0.48545-0.85444-0.0054545-1.6289-0.11564-2.32-0.32618-0.69222-0.21055-1.3033-0.48545-1.8333-0.81927l0.28111 2.9291c0.64111 0.21818 1.3033 0.35782 1.9856 0.42218 0.67889 0.065454 1.3522 0.093818 2.0167 0.089454 0.92556-0.0065454 1.7578-0.18109 2.4933-0.52909 0.73667-0.34364 1.3211-0.82909 1.7544-1.4509 0.43333-0.62182 0.65222-1.3495 0.66222-2.1829-0.021111-0.864-0.27444-1.5851-0.75222-2.172-0.48222-0.58473-1.0511-1.0233-1.7122-1.3102l-2.1211-0.95673c-0.42-0.18-0.76556-0.40909-1.0333-0.68945-0.26778-0.28145-0.40778-0.61527-0.41556-1.008 0.011111-0.47345 0.21444-0.84545 0.61222-1.1149 0.39444-0.27164 0.91111-0.40909 1.55-0.41345 0.54778-0.015273 1.0867 0.062182 1.6167 0.23018 0.53333 0.168 1.1467 0.516 1.8456 1.0429v-2.76c-0.4-0.20073-0.91667-0.37745-1.5533-0.53564-0.63556-0.15818-1.2722-0.24218-1.9089-0.24982-1.4989 0.012-2.7189 0.38291-3.6556 1.1138z"/>
<polygon id="l" points="0.91667 0.040752 0.91667 13.803 8.79 13.803 9.6567 11.402 3.88 11.402 3.88 7.994 7.6444 7.994 8.4233 5.6788 3.88 5.6788 3.88 2.3779 8.5533 2.3779 9.3522 0.040752"/>
<polygon id="k" points="11.44 0.040752 11.44 7.9719 4.8577 0.040752 0.94615 0.040752 2.4531 1.8206 2.4531 13.803 5.1946 13.803 5.1946 5.0995 12.496 13.803 14.204 13.803 14.204 0.040752"/>
<polygon id="s" points="0.416 0.040752 0.416 2.5068 4.3515 2.5068 4.3515 13.803 7.5282 13.803 7.5282 2.5068 11.208 2.5068 12.06 0.040752"/>
<polygon id="r" points="0.203 0.040752 2.872 0.040752 2.872 13.803 0.203 13.803"/>
<polygon id="q" points="10.492 0 10.492 7.9312 3.9104 0 0 0 1.5058 1.7799 1.5058 13.762 4.2462 13.762 4.2462 5.0587 11.549 13.762 13.258 13.762 13.258 0"/>
<path id="p" d="m2.7314 2.832c-1.272 1.2622-1.9223 2.9738-1.9509 5.136 0.0091429 1.4236 0.30743 2.664 0.89829 3.7211 0.58743 1.0549 1.4137 1.8753 2.4777 2.46s2.3131 0.88036 3.7451 0.88909c1.4331-0.0087273 2.68-0.30436 3.744-0.88909 1.0651-0.58473 1.8914-1.4051 2.48-2.46 0.58971-1.0571 0.888-2.2975 0.89714-3.7211-0.029714-2.1622-0.68343-3.8738-1.9589-5.136-1.2754-1.2611-2.9977-1.9069-5.1623-1.9342-2.176 0.027273-3.8983 0.67309-5.1703 1.9342zm2.2789 8.5036c-0.67657-0.83345-1.0171-1.9571-1.0251-3.3676 8e-3 -1.4116 0.34857-2.5342 1.0251-3.3687 0.672-0.83455 1.6377-1.2611 2.8914-1.2818 1.2434 0.020727 2.2046 0.44727 2.8834 1.2818 0.68 0.83455 1.024 1.9571 1.0331 3.3687-0.0091428 1.4105-0.35314 2.5342-1.0331 3.3676-0.67886 0.83564-1.64 1.2633-2.8834 1.2829-1.2537-0.019636-2.2194-0.44727-2.8914-1.2829z"/>
<path id="o" d="m0.21 1.4003c0 0.56795 0.5975 1.0261 1.335 1.0261 0.7325 0 1.33-0.45818 1.33-1.0261 0-0.56414-0.5975-1.0233-1.33-1.0233-0.7375 0-1.335 0.45914-1.335 1.0233zm0.2075 0c0-0.47727 0.50375-0.86482 1.1275-0.86482 0.6175 0 1.1212 0.38755 1.1212 0.86482 0 0.47918-0.50375 0.86577-1.1212 0.86577-0.62375 0-1.1275-0.38659-1.1275-0.86577zm0.56875-0.58609v1.1789h0.265v-0.48873h0.16375l0.47 0.48873h0.3275l-0.51375-0.50305c0.26-0.021 0.41375-0.14986 0.41375-0.34459 0-0.231-0.17625-0.33123-0.575-0.33123h-0.55125zm0.265 0.1575h0.24625c0.12875 0 0.205 0.0085909 0.255 0.025773 0.0575 0.023864 0.09625 0.085909 0.09625 0.15368 0 0.14414-0.1125 0.21191-0.35125 0.21191h-0.24625v-0.39136z"/>
</defs>
<g fill="none" fill-rule="evenodd">
<g transform="translate(-865 -23)">
<g transform="translate(-1 -50)">
<g transform="translate(866 73)" fill="#fff">
<mask id="e" fill="white">
<use xlink:href="#t"/>
</mask>
<polygon points="-74.455 56.727 1136.1 56.727 1136.1 -76.474 -74.455 -76.474" mask="url(#e)"/>
<polygon points="-4.6859 19.488 17.539 19.488 17.539 -3.5727 -4.6859 -3.5727" mask="url(#e)"/>
<g transform="translate(15)">
<mask id="c" fill="white">
<use xlink:href="#n"/>
</mask>
<polygon points="-86.857 56.727 1083.8 56.727 1083.8 -76.474 -86.857 -76.474" mask="url(#c)"/>
<polygon points="-4.0046 19.508 19.602 19.508 19.602 -3.5716 -4.0046 -3.5716" mask="url(#c)"/>
</g>
<g transform="translate(34)">
<mask id="b" fill="white">
<use xlink:href="#m"/>
</mask>
<polygon points="-102.22 56.727 1035.9 56.727 1035.9 -76.474 -102.22 -76.474" mask="url(#b)"/>
<polygon points="-4.2311 19.51 14.068 19.51 14.068 -3.5302 -4.2311 -3.5302" mask="url(#b)"/>
</g>
<g transform="translate(47 .95454)">
<mask id="a" fill="white">
<use xlink:href="#l"/>
</mask>
<polygon points="-115.56 56.171 1022.6 56.171 1022.6 -78.311 -115.56 -78.311" mask="url(#a)"/>
<polygon points="-3.6356 18.316 14.209 18.316 14.209 -4.4717 -3.6356 -4.4717" mask="url(#a)"/>
</g>
<g transform="translate(60 .95454)">
<mask id="j" fill="white">
<use xlink:href="#k"/>
</mask>
<polygon points="-132.69 56.171 1049.2 56.171 1049.2 -78.311 -132.69 -78.311" mask="url(#j)"/>
<polygon points="-3.7812 18.316 18.931 18.316 18.931 -4.4717 -3.7812 -4.4717" mask="url(#j)"/>
</g>
<g transform="translate(77 .95454)">
<mask id="i" fill="white">
<use xlink:href="#s"/>
</mask>
<polygon points="-153.64 56.171 1056.9 56.171 1056.9 -78.311 -153.64 -78.311" mask="url(#i)"/>
<polygon points="-4.4259 18.316 16.904 18.316 16.904 -4.4717 -4.4259 -4.4717" mask="url(#i)"/>
</g>
<g transform="translate(92 .95454)">
<mask id="h" fill="white">
<use xlink:href="#r"/>
</mask>
<polygon points="-143 56.171 881.34 56.171 881.34 -78.311 -143 -78.311" mask="url(#h)"/>
<polygon points="-3.894 18.316 6.968 18.316 6.968 -4.4717 -3.894 -4.4717" mask="url(#h)"/>
</g>
<g transform="translate(99.803 .9953)">
<mask id="g" fill="white">
<use xlink:href="#q"/>
</mask>
<polygon points="-172.73 56.131 1009.2 56.131 1009.2 -78.351 -172.73 -78.351" mask="url(#g)"/>
<polygon points="-4.7285 18.276 17.985 18.276 17.985 -4.5124 -4.7285 -4.5124" mask="url(#g)"/>
</g>
<g transform="translate(116)">
<mask id="f" fill="white">
<use xlink:href="#p"/>
</mask>
<polygon points="-187.43 56.727 983.25 56.727 983.25 -76.474 -187.43 -76.474" mask="url(#f)"/>
<polygon points="-3.9017 19.508 19.705 19.508 19.705 -3.5716 -3.9017 -3.5716" mask="url(#f)"/>
</g>
<g transform="translate(132 .95454)">
<mask id="d" fill="white">
<use xlink:href="#o"/>
</mask>
<polygon points="-222.25 48.682 1058.2 48.682 1058.2 -67.869 -222.25 -67.869" mask="url(#d)"/>
<polygon points="-4.9112 6.3382 7.9975 6.3382 7.9975 -3.5347 -4.9112 -3.5347" mask="url(#d)"/>
</g>
</g>
</g>
</g>
</g>
</svg>
